<svg width="28" height="28" viewBox="0 0 28 28" fill="none" xmlns="http://www.w3.org/2000/svg">
<path fill-rule="evenodd" clip-rule="evenodd" d="M11.5006 3.5H8.35957C7.11345 3.5 6.10327 4.51018 6.10327 5.7563V23.3317C6.10327 24.1476 6.55014 24.8926 7.32542 25.1469C8.56472 25.5534 10.7637 26.063 14.0003 26.063C17.2369 26.063 19.4359 25.5534 20.6752 25.1469C21.4505 24.8926 21.8973 24.1476 21.8973 23.3317V5.7563C21.8973 4.51018 20.8872 3.5 19.6411 3.5H16.5C16.1532 4.48297 15.7503 6.06722 14.0003 6.06722C12.2503 6.06722 11.8474 4.48297 11.5006 3.5Z" fill="#F66743"/>
<path d="M26.4889 8.34881C26.6704 8.00745 26.5635 7.58409 26.2417 7.36977L21.1605 3.98525C20.7903 3.73871 20.2882 3.86544 20.0795 4.25811L17.6262 8.87207C17.4174 9.26474 17.5931 9.75185 18.0044 9.92085L23.6518 12.2408C24.0094 12.3877 24.4201 12.2396 24.6016 11.8982L26.4889 8.34881Z" fill="#F86743" fill-opacity="0.6"/>
<path d="M1.51109 8.34881C1.32959 8.00745 1.43645 7.58409 1.75822 7.36977L6.83949 3.98525C7.20963 3.73871 7.7117 3.86544 7.92049 4.25811L10.3738 8.87207C10.5826 9.26474 10.4069 9.75185 9.9955 9.92085L4.3482 12.2408C3.99059 12.3877 3.57985 12.2396 3.39834 11.8982L1.51109 8.34881Z" fill="#F86743" fill-opacity="0.6"/>
</svg>
