<svg width="28" height="28" viewBox="0 0 28 28" fill="none" xmlns="http://www.w3.org/2000/svg">
<path fill-rule="evenodd" clip-rule="evenodd" d="M13.4174 0.875H6.44911C6.27011 0.875 6.125 1.02011 6.125 1.19911V25.9392C6.125 25.9909 6.13733 26.0416 6.17174 26.0801C6.33759 26.2659 7.02016 26.8036 9.36607 26.8036C11.7568 26.8036 12.4201 26.2452 12.5694 26.0699C12.5969 26.0375 12.609 25.996 12.6125 25.9536L13.7426 12.4659C13.7758 12.0698 14.3554 12.0698 14.3886 12.4659L15.523 26.0043C15.5237 26.0133 15.524 26.0219 15.5255 26.0308C15.5429 26.1329 15.7708 26.8036 18.7652 26.8036C22.0062 26.8036 22.0062 26.0179 22.0062 26.0179V1.19911C22.0062 1.02011 21.8611 0.875 21.6821 0.875H14.7138H13.4174Z" fill="#F66743"/>
<path d="M6.125 1.19911C6.125 1.02011 6.27011 0.875 6.44911 0.875H21.6011C21.7801 0.875 21.9252 1.02011 21.9252 1.19911V3.3058C21.9252 3.4848 21.7801 3.62991 21.6011 3.62991H6.44911C6.27011 3.62991 6.125 3.4848 6.125 3.3058V1.19911Z" fill="white" fill-opacity="0.4"/>
<path fill-rule="evenodd" clip-rule="evenodd" d="M13.4169 4.7644C13.6407 4.7644 13.8221 4.94579 13.8221 5.16954C13.8221 5.63054 13.7093 6.29106 13.4364 6.94589C13.163 7.60207 12.7151 8.28509 12.0211 8.7477C11.835 8.87182 11.5834 8.82151 11.4593 8.63534C11.3352 8.44917 11.3855 8.19763 11.5717 8.07352C12.0932 7.72586 12.4555 7.19348 12.6885 6.63425C12.9221 6.07368 13.0118 5.5188 13.0118 5.16954C13.0118 4.94579 13.1932 4.7644 13.4169 4.7644Z" fill="white"/>
<path fill-rule="evenodd" clip-rule="evenodd" d="M15.0378 4.7644C14.814 4.7644 14.6326 4.94579 14.6326 5.16954C14.6326 5.63054 14.7454 6.29106 15.0183 6.94589C15.2917 7.60207 15.7396 8.28509 16.4336 8.7477C16.6197 8.87182 16.8713 8.82151 16.9954 8.63534C17.1195 8.44917 17.0692 8.19763 16.883 8.07352C16.3615 7.72586 15.9992 7.19348 15.7662 6.63425C15.5327 6.07368 15.4429 5.5188 15.4429 5.16954C15.4429 4.94579 15.2615 4.7644 15.0378 4.7644Z" fill="white"/>
</svg>
