<svg width="28" height="28" viewBox="0 0 28 28" fill="none" xmlns="http://www.w3.org/2000/svg">
<path d="M3.5 5.40909C3.5 4.35473 4.35473 3.5 5.40909 3.5H9.22727C10.2816 3.5 11.1364 4.35473 11.1364 5.40909V9.22727C11.1364 10.2816 10.2816 11.1364 9.22727 11.1364H5.40909C4.35473 11.1364 3.5 10.2816 3.5 9.22727V5.40909Z" fill="#F86743" fill-opacity="0.6"/>
<path d="M14.9547 5.40909C14.9547 4.35473 15.8094 3.5 16.8638 3.5H20.682C21.7363 3.5 22.5911 4.35473 22.5911 5.40909V9.22727C22.5911 10.2816 21.7363 11.1364 20.682 11.1364H16.8638C15.8094 11.1364 14.9547 10.2816 14.9547 9.22727V5.40909Z" fill="#F86743" fill-opacity="0.6"/>
<path d="M14.9547 17.4366C14.9547 16.0659 16.0659 14.9548 17.4365 14.9548H22.0183C23.389 14.9548 24.5002 16.0659 24.5002 17.4366V22.0184C24.5002 23.3891 23.389 24.5002 22.0183 24.5002H17.4365C16.0659 24.5002 14.9547 23.3891 14.9547 22.0184V17.4366Z" fill="#F66743"/>
<path d="M3.5 16.8639C3.5 15.8095 4.35473 14.9548 5.40909 14.9548H9.22727C10.2816 14.9548 11.1364 15.8095 11.1364 16.8639V20.682C11.1364 21.7364 10.2816 22.5911 9.22727 22.5911H5.40909C4.35473 22.5911 3.5 21.7364 3.5 20.682V16.8639Z" fill="#F86743" fill-opacity="0.6"/>
</svg>
