<svg width="121" height="83" viewBox="0 0 121 83" fill="none" xmlns="http://www.w3.org/2000/svg">
<path d="M88.7819 17.911C90.1447 15.374 89.0942 12.1852 86.4892 10.6895L73.9617 3.49589C71.1314 1.87062 67.5532 2.8962 65.3288 5.27766C63.3954 7.34755 61.1288 9.10186 58.6094 10.4623C54.3467 12.7642 49.5271 13.8489 44.6833 13.5964C39.8395 13.3439 35.1603 11.7641 31.1629 9.03168C28.8004 7.41678 26.7304 5.43642 25.0252 3.17688C23.0633 0.5772 19.6125 -0.81475 16.6268 0.507363L3.41204 6.35912C0.426356 7.68124 -0.944432 11.1818 0.711664 13.9841C4.60021 20.564 9.90245 26.2396 16.266 30.5895C24.2608 36.0543 33.6193 39.2139 43.3069 39.7189C44.7804 39.7957 46.2529 39.8106 47.7205 39.7645L32.6902 63.333C32.504 63.625 32.347 63.9268 32.2182 64.2351C30.8549 66.7722 31.9055 69.9614 34.5106 71.4573L34.7025 71.5675C34.7112 71.5725 34.7199 71.5776 34.7286 71.5826L44.4 77.1361C44.4087 77.1411 44.4174 77.146 44.4261 77.151L47.0381 78.6508C49.8685 80.2761 53.4466 79.2506 55.671 76.8691C57.6043 74.7992 59.8711 73.0449 62.3904 71.6844C66.653 69.3826 71.4727 68.2979 76.3165 68.5503C81.1603 68.8028 85.8396 70.3826 89.8369 73.1151C92.1994 74.73 94.2693 76.7103 95.9746 78.9698C97.9365 81.5695 101.387 82.9615 104.373 81.6394L117.588 75.7877C120.573 74.4655 121.944 70.965 120.288 68.1627C116.399 61.5828 111.098 55.9071 104.733 51.5573C96.739 46.0924 87.3806 42.9328 77.693 42.4278C76.2194 42.351 74.747 42.3361 73.2794 42.3822L88.3095 18.814C88.4959 18.5217 88.6531 18.2196 88.7819 17.911Z" fill="#F66743"/>
</svg>
