<svg width="52" height="52" viewBox="0 0 52 52" fill="none" xmlns="http://www.w3.org/2000/svg">
<circle cx="26" cy="26" r="26" fill="white"/>
<path d="M36.1736 17.2013C35.8521 15.689 34.3673 14.7222 32.8542 15.0401C31.2456 15.378 30.2712 17.0209 30.7462 18.5946L33.7767 28.6345C34.0072 29.3982 34.7845 29.8579 35.5648 29.6921L37.1865 29.3474C38.0155 29.1712 38.5447 28.3563 38.3685 27.5273L36.1736 17.2013Z" fill="#F86743" fill-opacity="0.6"/>
<path d="M13.8505 30.5511C13.7976 30.7998 13.9564 31.0443 14.2051 31.0971L16.3065 31.5438C16.5552 31.5966 16.7996 31.4379 16.8525 31.1892L16.9032 30.9506C16.9561 30.7019 16.7973 30.4575 16.5486 30.4046L14.4472 29.9579C14.1985 29.9051 13.9541 30.0638 13.9012 30.3125L13.8505 30.5511Z" fill="#F86743" fill-opacity="0.6"/>
<path d="M16.2634 17.2013C16.5849 15.689 18.0697 14.7222 19.5827 15.0401C21.1914 15.378 22.1657 17.0209 21.6907 18.5946L18.6608 28.6323C18.4302 29.396 17.653 29.8557 16.8726 29.6898L15.251 29.3451C14.422 29.1689 13.8928 28.3541 14.069 27.5251L16.2634 17.2013Z" fill="#F86743" fill-opacity="0.6"/>
<path d="M19.8887 34.5659C19.8887 34.2566 20.1635 34.0059 20.5025 34.0059H31.5511C31.8901 34.0059 32.165 34.2566 32.165 34.5659V36.9459C32.165 37.2552 31.8901 37.5059 31.5511 37.5059H20.5025C20.1635 37.5059 19.8887 37.2552 19.8887 36.9459V34.5659Z" fill="#F86743" fill-opacity="0.6"/>
<path d="M38.3817 30.5237C38.4389 30.7714 38.2844 31.0186 38.0367 31.0758L35.9434 31.5591C35.6956 31.6163 35.4485 31.4618 35.3913 31.2141L35.3364 30.9764C35.2792 30.7287 35.4337 30.4815 35.6814 30.4243L37.7747 29.941C38.0224 29.8838 38.2696 30.0383 38.3268 30.286L38.3817 30.5237Z" fill="#F86743" fill-opacity="0.6"/>
<path fill-rule="evenodd" clip-rule="evenodd" d="M22.311 13.75H20.8671C19.0917 13.75 17.6867 15.1949 17.8048 16.8993L18.9301 33.1398C19.0376 34.691 20.3766 35.8962 21.9924 35.8962H30.0607C31.6764 35.8962 33.0154 34.691 33.1229 33.1398L34.2483 16.8993C34.3663 15.1949 32.9613 13.75 31.186 13.75H29.742C29.3161 15.0236 27.8141 15.9646 26.0265 15.9646C24.2389 15.9646 22.7369 15.0236 22.311 13.75Z" fill="#F66743"/>
<path fill-rule="evenodd" clip-rule="evenodd" d="M22.9575 18.7367C22.9575 18.5248 23.1293 18.3531 23.3412 18.3531H24.8757C25.0876 18.3531 25.2593 18.5248 25.2593 18.7367C25.2593 18.9486 25.0876 19.1204 24.8757 19.1204H23.3412C23.1293 19.1204 22.9575 18.9486 22.9575 18.7367Z" fill="white" fill-opacity="0.8"/>
<path fill-rule="evenodd" clip-rule="evenodd" d="M26.7939 18.7367C26.7939 18.5248 26.9657 18.3531 27.1776 18.3531H28.7121C28.924 18.3531 29.0957 18.5248 29.0957 18.7367C29.0957 18.9486 28.924 19.1204 28.7121 19.1204H27.1776C26.9657 19.1204 26.7939 18.9486 26.7939 18.7367Z" fill="white" fill-opacity="0.8"/>
<path fill-rule="evenodd" clip-rule="evenodd" d="M24.1379 18.3542C24.3492 18.3705 24.5073 18.5549 24.491 18.7662C24.4261 19.6095 24.2707 20.9131 24.0133 22.0892C23.8848 22.6765 23.7283 23.244 23.5399 23.7106C23.3597 24.157 23.1211 24.5876 22.7868 24.8105C22.6105 24.928 22.3723 24.8803 22.2548 24.7041C22.1373 24.5278 22.1849 24.2896 22.3612 24.172C22.4873 24.088 22.6547 23.8536 22.8285 23.4233C22.9941 23.0131 23.1397 22.4921 23.2638 21.9252C23.5115 20.7931 23.663 19.5264 23.726 18.7073C23.7423 18.4961 23.9267 18.338 24.1379 18.3542Z" fill="white" fill-opacity="0.8"/>
<path fill-rule="evenodd" clip-rule="evenodd" d="M27.9919 18.3542C27.7807 18.3705 27.6226 18.5549 27.6389 18.7662C27.7037 19.6095 27.8592 20.9131 28.1166 22.0892C28.2451 22.6765 28.4016 23.244 28.59 23.7106C28.7702 24.157 29.0088 24.5876 29.3431 24.8105C29.5194 24.928 29.7576 24.8803 29.8751 24.7041C29.9926 24.5278 29.945 24.2896 29.7687 24.172C29.6426 24.088 29.4751 23.8536 29.3013 23.4233C29.1357 23.0131 28.9901 22.4921 28.8661 21.9252C28.6183 20.7931 28.4669 19.5264 28.4039 18.7073C28.3876 18.4961 28.2032 18.338 27.9919 18.3542Z" fill="white" fill-opacity="0.8"/>
</svg>
