<svg width="28" height="28" viewBox="0 0 28 28" fill="none" xmlns="http://www.w3.org/2000/svg">
<path d="M4.47806 12.2564C4.63025 10.6583 5.97243 9.43793 7.57771 9.43793H20.5973C22.2026 9.43793 23.5448 10.6583 23.6969 12.2564L24.6607 22.3758C24.8348 24.2038 23.3973 25.7847 21.5611 25.7847H6.61395C4.77769 25.7847 3.34021 24.2038 3.5143 22.3758L4.47806 12.2564Z" fill="#F66743"/>
<path fill-rule="evenodd" clip-rule="evenodd" d="M8.63855 6.71314C8.63855 3.48882 11.2524 0.875 14.4767 0.875C17.701 0.875 20.3148 3.48882 20.3148 6.71314V14.1081C20.3148 14.538 19.9663 14.8865 19.5364 14.8865C19.1065 14.8865 18.758 14.538 18.758 14.1081V6.71314C18.758 4.34864 16.8412 2.43184 14.4767 2.43184C12.1122 2.43184 10.1954 4.34864 10.1954 6.71314V14.1081C10.1954 14.538 9.84688 14.8865 9.41697 14.8865C8.98706 14.8865 8.63855 14.538 8.63855 14.1081V6.71314Z" fill="#F86743" fill-opacity="0.6"/>
<path fill-rule="evenodd" clip-rule="evenodd" d="M9.41697 10.2157C9.84688 10.2157 10.1954 10.5642 10.1954 10.9941V14.1078C10.1954 14.5377 9.84688 14.8862 9.41697 14.8862C8.98706 14.8862 8.63855 14.5377 8.63855 14.1078V10.9941C8.63855 10.5642 8.98706 10.2157 9.41697 10.2157ZM19.5364 10.2157C19.9663 10.2157 20.3148 10.5642 20.3148 10.9941V14.1078C20.3148 14.5377 19.9663 14.8862 19.5364 14.8862C19.1065 14.8862 18.758 14.5377 18.758 14.1078V10.9941C18.758 10.5642 19.1065 10.2157 19.5364 10.2157Z" fill="white"/>
</svg>
